<svg xmlns="http://www.w3.org/2000/svg" xmlns:xlink="http://www.w3.org/1999/xlink" id="Layer_1" x="0" y="0" version="1.1" viewBox="0 0 121.3 68.4" style="enable-background:new 0 0 121.3 68.4" xml:space="preserve"><style type="text/css">.st0{fill:#32421b}.st1{fill:url(#SVGID_1_)}</style><g><path d="M60.5,0v68.4H41.7V41.6H18.8v26.8H0V0h18.8v25.3h22.9V0H60.5z" class="st0"/><linearGradient id="SVGID_1_" x1="60.523" x2="121.336" y1="34.213" y2="34.213" gradientUnits="userSpaceOnUse"><stop offset="0" style="stop-color:#8cbe2a"/><stop offset=".299" style="stop-color:#85bc30"/><stop offset=".691" style="stop-color:#6fb63f"/><stop offset="1" style="stop-color:#53b04c"/></linearGradient><path d="M60.5,68.4V0h26.3c7.6,0,13.9,1.5,19,4.6c5.1,3.1,9,7.2,11.6,12.3c2.6,5.2,3.9,10.9,3.9,17.2 c0,6.9-1.4,13-4.3,18.1c-2.9,5.1-6.9,9.1-12,12c-5.2,2.8-11.2,4.2-18.2,4.2H60.5z M102.3,34.1c0-3.5-0.6-6.6-1.8-9.3 c-1.2-2.7-3-4.7-5.3-6.2c-2.3-1.5-5.1-2.2-8.3-2.2h-7.5V52h7.5c3.3,0,6.1-0.8,8.3-2.3c2.3-1.5,4-3.7,5.3-6.4 C101.6,40.6,102.3,37.5,102.3,34.1z" class="st1"/></g></svg>